<svg width="56" height="18" viewBox="0 0 56 18" fill="none" xmlns="http://www.w3.org/2000/svg">
<path d="M24.3827 4.48776C23.91 4.16285 23.2933 4 22.5325 4H19.5869C19.3536 4 19.2248 4.11665 19.2003 4.34973L18.0038 11.8608C17.9913 11.9346 18.0098 12.0021 18.059 12.0634C18.1079 12.1248 18.1694 12.1554 18.243 12.1554H19.6422C19.8875 12.1554 20.0224 12.039 20.0472 11.8057L20.3785 9.78069C20.3906 9.68256 20.4338 9.60276 20.5074 9.54131C20.581 9.47998 20.6731 9.43986 20.7836 9.42151C20.894 9.40328 20.9982 9.39405 21.0965 9.39405C21.1946 9.39405 21.3112 9.4003 21.4464 9.41251C21.5813 9.42472 21.6672 9.43074 21.7041 9.43074C22.7595 9.43074 23.5879 9.13335 24.1894 8.53788C24.7906 7.94276 25.0916 7.11748 25.0916 6.06172C25.0916 5.33762 24.8551 4.81301 24.3827 4.48759V4.48776ZM22.864 6.74311C22.8024 7.17274 22.643 7.45489 22.3853 7.58994C22.1275 7.72516 21.7594 7.79246 21.2808 7.79246L20.6732 7.8108L20.9862 5.84091C21.0107 5.70603 21.0904 5.63851 21.2255 5.63851H21.5754C22.0661 5.63851 22.4222 5.70924 22.6432 5.85014C22.864 5.99138 22.9376 6.28911 22.864 6.74311Z" fill="#003087"/>
<path d="M55.468 4H54.1059C53.9705 4 53.8908 4.06753 53.8665 4.20263L52.6698 11.8612L52.6514 11.898C52.6514 11.9596 52.6759 12.0176 52.7251 12.0729C52.7739 12.128 52.8356 12.1557 52.9091 12.1557H54.1244C54.3572 12.1557 54.4861 12.0393 54.511 11.806L55.7076 4.27629V4.258C55.7075 4.0861 55.6275 4.00023 55.468 4.00023V4Z" fill="#009CDE"/>
<path d="M39.01 6.96463C39.01 6.90341 38.9854 6.845 38.9366 6.78991C38.8873 6.73471 38.8321 6.70691 38.7709 6.70691H37.3533C37.2181 6.70691 37.1076 6.76858 37.0218 6.89097L35.0705 9.763L34.2604 7.00155C34.1988 6.80533 34.0639 6.70691 33.8555 6.70691H32.4745C32.413 6.70691 32.3578 6.73459 32.309 6.78991C32.2598 6.845 32.2354 6.90352 32.2354 6.96463C32.2354 6.98933 32.355 7.35127 32.5943 8.05084C32.8336 8.75063 33.0913 9.50545 33.3675 10.3155C33.6437 11.1254 33.7878 11.5552 33.8001 11.6039C32.7936 12.9787 32.2906 13.7151 32.2906 13.8131C32.2906 13.9728 32.3702 14.0525 32.5299 14.0525H33.9475C34.0824 14.0525 34.1928 13.9913 34.2789 13.8685L38.9734 7.09344C38.9978 7.06913 39.01 7.02636 39.01 6.96458V6.96463Z" fill="#003087"/>
<path d="M52.2104 6.7065H50.8112C50.6392 6.7065 50.5352 6.90907 50.4984 7.31417C50.1789 6.82337 49.5963 6.57764 48.7492 6.57764C47.8656 6.57764 47.1138 6.90907 46.4941 7.57184C45.8742 8.2346 45.5645 9.01418 45.5645 9.91002C45.5645 10.6343 45.7761 11.2111 46.1995 11.6405C46.6229 12.0703 47.1905 12.2848 47.9026 12.2848C48.2584 12.2848 48.6205 12.2111 48.9887 12.0639C49.3569 11.9167 49.645 11.7204 49.8541 11.4748C49.8541 11.4871 49.8415 11.5422 49.8173 11.6403C49.7925 11.7387 49.7804 11.8126 49.7804 11.8612C49.7804 12.0578 49.8599 12.1558 50.0197 12.1558H51.2901C51.523 12.1558 51.6582 12.0394 51.6949 11.806L52.4498 7.00102C52.4619 6.92731 52.4436 6.85995 52.3946 6.7985C52.3452 6.73728 52.284 6.7065 52.2104 6.7065ZM49.8079 10.3334C49.4949 10.6403 49.1175 10.7936 48.6757 10.7936C48.3196 10.7936 48.0314 10.6956 47.8104 10.4991C47.5894 10.3031 47.4789 10.0331 47.4789 9.68904C47.4789 9.23527 47.6324 8.85139 47.9393 8.53847C48.2457 8.22548 48.6266 8.06905 49.0807 8.06905C49.424 8.06905 49.7095 8.17028 49.9367 8.37269C50.1636 8.57527 50.2775 8.85449 50.2775 9.21051C50.2773 9.6523 50.1209 10.0267 49.8079 10.3334Z" fill="#009CDE"/>
<path d="M31.2945 6.7065H29.8953C29.7233 6.7065 29.6192 6.90907 29.5823 7.31417C29.2509 6.82337 28.6679 6.57764 27.8333 6.57764C26.9497 6.57764 26.1978 6.90907 25.5781 7.57184C24.9582 8.2346 24.6484 9.01418 24.6484 9.91002C24.6484 10.6343 24.8602 11.2111 25.2836 11.6405C25.7071 12.0703 26.2746 12.2848 26.9865 12.2848C27.33 12.2848 27.6861 12.2111 28.0543 12.0639C28.4224 11.9167 28.717 11.7204 28.9379 11.4748C28.8887 11.622 28.8643 11.7509 28.8643 11.8612C28.8643 12.0578 28.944 12.1558 29.1036 12.1558H30.3739C30.6069 12.1558 30.7421 12.0394 30.7789 11.806L31.5337 7.00102C31.5458 6.92731 31.5274 6.85995 31.4785 6.7985C31.4294 6.73728 31.3681 6.7065 31.2945 6.7065ZM28.892 10.3425C28.579 10.6436 28.1953 10.7936 27.7414 10.7936C27.3853 10.7936 27.1 10.6956 26.8853 10.4991C26.6704 10.3031 26.5631 10.0331 26.5631 9.68904C26.5631 9.23527 26.7165 8.85139 27.0234 8.53847C27.33 8.22548 27.7106 8.06899 28.1648 8.06899C28.5083 8.06899 28.7937 8.17028 29.0209 8.37269C29.2478 8.57527 29.3615 8.85449 29.3615 9.21051C29.3614 9.66462 29.205 10.0421 28.892 10.3425Z" fill="#003087"/>
<path d="M45.2959 4.48776C44.8233 4.16285 44.2067 4 43.4457 4H40.5185C40.273 4 40.1379 4.11665 40.1135 4.34973L38.9168 11.8608C38.9044 11.9346 38.9229 12.0021 38.9721 12.0634C39.0208 12.1248 39.0824 12.1554 39.1561 12.1554H40.6656C40.8129 12.1554 40.911 12.0757 40.9603 11.9161L41.2917 9.78069C41.3039 9.68256 41.3468 9.60276 41.4206 9.54131C41.4942 9.47998 41.5862 9.43986 41.6968 9.42151C41.8071 9.40328 41.9113 9.39405 42.0097 9.39405C42.1078 9.39405 42.2243 9.4003 42.3594 9.41251C42.4943 9.42472 42.5806 9.43074 42.6171 9.43074C43.6728 9.43074 44.501 9.13335 45.1025 8.53788C45.7039 7.94276 46.0046 7.11748 46.0046 6.06172C46.0047 5.33762 45.7683 4.81295 45.2959 4.48759V4.48776ZM43.4089 7.51622C43.1389 7.70029 42.7338 7.79229 42.1939 7.79229L41.6047 7.81075L41.9177 5.8408C41.942 5.70598 42.0218 5.63834 42.1569 5.63834H42.4882C42.7583 5.63834 42.973 5.65066 43.1328 5.67514C43.292 5.69979 43.4457 5.77637 43.593 5.90518C43.7404 6.03409 43.8139 6.22136 43.8139 6.46671C43.8139 6.98238 43.6787 7.33199 43.4089 7.51622Z" fill="#009CDE"/>
<path d="M12.8044 1.33811C11.9827 0.401532 10.4973 0 8.59718 0H3.08225C2.69348 0 2.36312 0.282741 2.30225 0.666111L0.00596114 15.2298C-0.0396898 15.5169 0.182675 15.7771 0.473761 15.7771H3.87844L4.73354 10.3534L4.70703 10.5233C4.7679 10.1399 5.0958 9.85717 5.48408 9.85717H7.10199C10.2804 9.85717 12.7691 8.56618 13.4961 4.83164C13.5177 4.72119 13.5363 4.61369 13.5525 4.50865C13.4607 4.46005 13.4607 4.46005 13.5525 4.50865C13.769 3.12832 13.551 2.18879 12.8044 1.33811Z" fill="#27346A"/>
<path d="M6.03631 4.01139C6.12712 3.9682 6.22824 3.94415 6.33427 3.94415H10.6579C11.1698 3.94415 11.6475 3.97752 12.0838 4.04772C12.209 4.06785 12.3303 4.09092 12.4481 4.11742C12.5659 4.14344 12.6802 4.17289 12.7912 4.20529C12.8466 4.22149 12.9011 4.23818 12.9546 4.25585C13.1692 4.32752 13.3689 4.41096 13.5525 4.50865C13.769 3.12783 13.551 2.18879 12.8044 1.33811C11.9822 0.401532 10.4973 0 8.59718 0H3.08176C2.69348 0 2.36312 0.282742 2.30225 0.666111L0.00596147 15.2293C-0.0396895 15.5169 0.182675 15.7766 0.47327 15.7766H3.87844L5.65245 4.52681C5.68877 4.2961 5.83701 4.10711 6.03631 4.01139Z" fill="#27346A"/>
<path d="M13.4966 4.83166C12.7696 8.56571 10.2809 9.85719 7.10252 9.85719H5.48412C5.09584 9.85719 4.76794 10.1399 4.70756 10.5233L3.64385 17.2669C3.60409 17.5182 3.79847 17.746 4.05274 17.746H6.92286C7.26255 17.746 7.55167 17.4986 7.60468 17.1633L7.63266 17.017L8.1736 13.5888L8.20845 13.3993C8.26147 13.0641 8.55059 12.8167 8.89027 12.8167H9.31979C12.1001 12.8167 14.2771 11.6872 14.9133 8.42041C15.1788 7.0553 15.0414 5.9155 14.3389 5.11489C14.1259 4.8724 13.8613 4.67213 13.5531 4.50867C13.5364 4.6142 13.5182 4.72121 13.4966 4.83166Z" fill="#2790C3"/>
<path d="M12.7922 4.20523C12.6812 4.17284 12.5668 4.14339 12.449 4.11737C12.3312 4.09135 12.2095 4.06828 12.0848 4.04816C11.6479 3.97747 11.1708 3.94409 10.6583 3.94409H6.33524C6.22873 3.94409 6.12761 3.96814 6.03729 4.01183C5.8375 4.10755 5.68975 4.29605 5.65342 4.52725L4.73452 10.3534L4.70801 10.5232C4.76838 10.1399 5.09629 9.85712 5.48457 9.85712H7.10297C10.2814 9.85712 12.7701 8.56613 13.497 4.83159C13.5186 4.72114 13.5368 4.61413 13.5535 4.50859C13.3694 4.4114 13.1701 4.32746 12.9556 4.25629C12.9021 4.23861 12.8476 4.22143 12.7922 4.20523Z" fill="#1F264F"/>
</svg>
