<svg width="339" height="302" viewBox="0 0 339 302" fill="none" xmlns="http://www.w3.org/2000/svg">
<g filter="url(#filter0_d_53104_29176)">
<path opacity="0.4" d="M32.1631 272.332C1.4137 285.837 99.4353 290.635 196.822 284.924C294.208 279.208 231.929 258.77 156.264 260.366C80.6028 261.959 44.1727 267.057 32.1631 272.332Z" fill="#CCC9FF"/>
<path d="M13.2204 100.246L84.506 110.011L139.513 91.9018L189.262 110.642L265.805 100.246C265.805 100.246 175.308 68.3016 139.513 39.8853C139.513 39.8853 94.4118 75.1995 13.2204 100.246Z" fill="#A9B6CE"/>
<path d="M144.77 40.7585L148.814 28.9651C148.814 28.9651 143.473 27.0554 139.513 26.9495C134.256 26.8084 130.211 28.9651 130.211 28.9651L134.256 40.7585C134.256 40.7585 95.5233 76.1477 10.4904 91.1785L13.2204 100.246C13.2204 100.246 90.169 78.7499 139.513 44.1325C188.857 78.7499 265.805 100.246 265.805 100.246L268.535 91.1785C183.498 76.1477 144.77 40.7585 144.77 40.7585Z" fill="#595269"/>
<path opacity="0.3" d="M139.513 91.8972V44.1323C139.513 44.1323 189.84 78.2734 247.489 94.5478C247.489 94.5478 223.487 106.699 200.888 107.188C178.289 107.678 139.513 91.8972 139.513 91.8972Z" fill="#ACA4AD"/>
<path d="M42.0381 96.5195C42.0381 96.5195 113.628 68.5178 139.513 49.2134C139.513 49.2134 186.934 77.74 238.2 94.3364L226.067 272.098H58.4184L42.0381 96.5195Z" fill="#CFE5F3"/>
<path opacity="0.5" d="M48.001 99.0156L62.8641 264.283C62.8641 264.283 169.49 270.131 220.448 266.074L232.33 97.8645C232.33 97.8645 173.16 74.7671 139.698 54.5586C139.702 54.5674 98.6591 79.0673 48.001 99.0156Z" fill="#ACA4AD"/>
<path opacity="0.5" d="M62.8685 264.287C62.8685 264.287 91.179 257.173 98.8664 255.652C98.8664 255.652 94.2134 102.689 93.0005 98.2966C91.7876 93.9038 48.0054 99.0199 48.0054 99.0199L62.8685 264.287Z" fill="#ACA4AD"/>
<path opacity="0.6" d="M56.7998 161.926C56.7998 161.926 76.113 184.384 80.5631 185.566C85.0132 186.752 181.95 192.089 194.758 190.395C207.566 188.701 225.159 159.249 225.159 159.249L56.7998 161.926Z" fill="#ACA4AD"/>
<path opacity="0.6" d="M61.3998 221.519C61.3998 221.519 79.6457 243.977 83.8489 245.159C88.052 246.346 179.634 251.682 191.732 249.989C203.83 248.295 220.453 218.842 220.453 218.842L61.3998 221.519Z" fill="#ACA4AD"/>
<path opacity="0.8" d="M69.5856 157.33C61.0117 156.951 65.2766 156.708 63.7594 155.764C62.2422 154.82 66.3395 134.938 68.4256 122.422C70.5118 109.905 113.112 119.705 132.174 122.422C151.236 125.138 134.754 111.541 147.8 110.91C160.842 110.28 191.679 111.201 196.032 108.03C200.385 104.864 209.647 111.515 214.971 124.724C220.298 137.933 222.874 116.622 225.15 117.597C227.426 118.571 224.087 154.763 224.087 154.763C224.087 154.763 125.444 159.8 69.5856 157.33Z" fill="#ACA4AD"/>
<path opacity="0.8" d="M218.38 215.808H220.453C220.453 215.808 224.091 191.793 223.033 188.375C221.97 184.957 208.399 190.651 204.796 188.375C201.193 186.1 205.435 179.458 198.158 177.962C190.881 176.467 182.51 185.284 179.035 177.151C175.559 169.014 149.423 171.294 133.444 171.947C117.47 172.599 106.227 195.159 96.9743 196.301C87.7212 197.439 77.5773 199.446 72.2671 198.471C66.957 197.496 65.3825 212.465 63.9755 214.11C62.5686 215.751 68.4256 216.99 68.4256 216.99C68.4256 216.99 160.034 221.762 218.38 215.808Z" fill="#ACA4AD"/>
<path opacity="0.5" d="M232.334 97.8687C232.334 97.8687 192.394 98.6713 188.755 100.246C185.117 101.82 183.89 253.032 184.499 256.273C185.108 259.515 220.453 266.078 220.453 266.078L232.334 97.8687Z" fill="#ACA4AD"/>
<path d="M48.001 99.0155C48.001 99.0155 83.3417 105.755 88.9209 106.782C94.5 107.81 175.012 104.608 186.387 105.883C197.761 107.157 232.33 97.8688 232.33 97.8688L208.112 88.2056L70.869 89.4625L48.001 99.0155Z" fill="#7B738F"/>
<path d="M128.288 218.141L126.771 168.528L174.32 165.706L175.122 217.934L128.288 218.141Z" fill="#F5A945"/>
<path d="M203.212 186.968L196.147 191.793L193.496 216.981H201.501L203.212 186.968Z" fill="#EB7F29"/>
<path d="M59.4108 89.4452C59.4108 89.4452 116.865 67.4328 139.513 49.2134C139.513 49.2134 179.956 75.1202 219.999 87.9192L59.4108 89.4452Z" fill="#CFE5F3"/>
<path d="M80.5631 199.551L90.169 200.2L91.2804 217.427L82.2788 217.056L80.5631 199.551Z" fill="#EB7F29"/>
<path d="M62.8685 264.288C62.8685 264.288 88.8194 255.894 93.8076 254.779C98.8002 253.667 186.832 253.261 191.684 254.779C196.535 256.296 220.453 266.078 220.453 266.078C220.453 266.078 147.8 270.974 62.8685 264.288Z" fill="#E5F1F9"/>
<path opacity="0.8" d="M71.3806 261.557C71.3806 261.557 74.1901 263.33 77.8286 263.652C81.4672 263.979 106.849 264.257 107.709 264.605C108.569 264.953 133.845 266.206 139.508 266.069C145.171 265.932 145.273 262.497 152.55 261.557C159.832 260.618 157.807 265.421 163.267 266.585C168.727 267.745 194.056 266.969 201.867 266.074C209.678 265.178 217.824 265.011 217.824 265.011C217.824 265.011 220.096 243.047 216.554 235.399C213.017 227.751 175.197 233.467 142.538 238.341C109.879 243.214 80.9115 233.785 76.6643 229.467C72.4215 225.149 71.3806 261.557 71.3806 261.557Z" fill="#ACA4AD"/>
<path d="M145.577 259.55L144.06 224.933L174.32 222.582L171.665 259.55H145.577Z" fill="#F5A945"/>
<path d="M199.975 229.485L193.496 231.981L192.394 258.576L198.158 264.287L199.975 229.485Z" fill="#EB7F29"/>
<path d="M176.119 156.338V96.5196L198.158 95.4214L196.147 155.765L176.119 156.338Z" fill="#F5CE45"/>
<path d="M119.494 157.171L118.885 104.281L65.8985 108.921L69.5856 157.33L119.494 157.171Z" fill="#F5CE45"/>
<path d="M204.791 155.482L206.851 113.843H225.154L221.401 154.878L204.791 155.482Z" fill="#F5CE45"/>
<path d="M152.96 218.163L151.24 176.105L200.69 176.56L198.158 216.849L152.96 218.163Z" fill="#F5CE45"/>
<path d="M200.888 216.725L203.212 186.968H221.401L218.38 215.808L200.888 216.725Z" fill="#F5CE45"/>
<path d="M116.852 218.41L113.937 166.222L80.7396 168.383L84.8721 218.141L116.852 218.41Z" fill="#F5BF45"/>
<path d="M82.2788 217.056L80.5631 199.551H63.9799L65.8985 216.011L82.2788 217.056Z" fill="#F5CE45"/>
<path d="M163.272 266.069V226.067L196.032 223.707L194.515 266.069H163.272Z" fill="#F5CE45"/>
<path d="M198.158 264.287L199.975 229.485H216.558L214.993 264.287H198.158Z" fill="#F5CE45"/>
<path d="M110.647 263.079H77.7228L75.0016 222.582H108.702L110.647 263.079Z" fill="#F5BF45"/>
<path d="M206.851 113.843L197.391 118.465L196.147 155.764L204.791 155.482L206.851 113.843Z" fill="#EB7F29"/>
<path d="M176.119 96.519L174.042 100.246L172.525 155.764L176.119 156.338V96.519Z" fill="#EB7F29"/>
<path d="M118.885 104.281L130.815 113.843L132.178 157.171L119.498 157.33L118.885 104.281Z" fill="#EB7F29"/>
<path d="M129.298 157.33L128.54 125.138H175.105L174.293 156.36L129.298 157.33Z" fill="#F5BF45"/>
<path d="M151.24 125.138L150.38 106.782H174.32V125.138H151.24Z" fill="#F5CE45"/>
<path d="M113.937 166.222L128.288 172.436V218.141L116.817 217.837L113.937 166.222Z" fill="#EB7F29"/>
<path d="M141.295 218.194L142.543 198.466H108.366L108.128 218.057L141.295 218.194Z" fill="#F5CE45"/>
<path d="M142.543 198.466L145.577 200.31V218.163L142.75 218.159L142.543 198.466Z" fill="#EB7F29"/>
<path d="M108.697 222.582L119.666 224.17V260.256L110.642 263.083L108.697 222.582Z" fill="#EB7F29"/>
<path d="M136.024 264.609V232.797L107.709 233.714L109.328 264.609H136.024Z" fill="#F5CE45"/>
<path d="M136.024 232.797L138.573 234.513V260.009L136.024 264.609V232.797Z" fill="#EB7F29"/>
<path d="M163.272 226.066L161.957 229.484V257.597L163.272 266.069V226.066Z" fill="#EB7F29"/>
<path d="M147.804 231.006H138.247V261.557H147.804V231.006Z" fill="#F5BF45"/>
<path d="M83.8665 107.347L85.9218 126.876L97.852 125.879L96.8596 106.209L83.8665 107.347Z" fill="white"/>
<path d="M133.951 152.258L133.444 145.964H143.456V151.716L133.951 152.258Z" fill="white"/>
<path d="M168.838 125.138H162.769V135.983H168.838V125.138Z" fill="white"/>
<path d="M182.691 96.1929V118.576H192.239L193.496 95.6504L182.691 96.1929Z" fill="white"/>
<path d="M218.38 146.617H210.291L209.683 153.233H218.076L218.38 146.617Z" fill="white"/>
<path d="M178.236 176.356V187.727H186.325L187.137 176.436L178.236 176.356Z" fill="white"/>
<path d="M88.9252 167.849L94.2618 192.058L102.452 190.655L98.8619 167.201L88.9252 167.849Z" fill="white"/>
<path d="M140.999 211.481H132.178V216.725H140.999V211.481Z" fill="white"/>
<path d="M65.5457 201.5L66.2557 204.266H71.3101L70.8558 201.5H65.5457Z" fill="white"/>
<path d="M204.791 208.111L216.558 208.486L215.597 215.578H203.213L204.791 208.111Z" fill="white"/>
<path d="M203.213 234.583V241.066L213.021 239.955V234.583H203.213Z" fill="white"/>
<path d="M179.035 224.928L179.652 234.583H187.136V224.346L179.035 224.928Z" fill="white"/>
<path d="M112.005 233.573L113.019 243.368L120.301 242.83V233.304L112.005 233.573Z" fill="white"/>
<path opacity="0.5" d="M19.8934 98.1379C19.8934 98.1379 39.8638 101.56 42.0337 102.341L42.9334 106.156L48.001 102.469V99.0156C48.001 99.0156 116.411 62.9296 133.444 59.3748C150.477 55.82 213.021 87.9896 219.999 90.9181C226.976 93.8466 232.335 97.8689 232.335 97.8689V106.209H237.389C237.389 106.209 237.751 97.913 238.959 97.8689C240.163 97.8248 246.536 95.011 246.536 95.011C246.536 95.011 219.954 85.63 187.141 70.8639C154.327 56.0978 139.513 44.1279 139.513 44.1279C139.513 44.1279 106.955 72.0062 19.8934 98.1379Z" fill="#ACA4AD"/>
<path d="M125.96 263.083L125.558 259.233L133.85 258.748V263.083H125.96Z" fill="white"/>
<path opacity="0.5" d="M10.4904 91.1777C10.4904 91.1777 52.3629 84.6371 87.1832 69.3285C122.003 54.0155 134.251 40.7578 134.251 40.7578C134.251 40.7578 92.6962 77.2496 10.4904 91.1777Z" fill="#ACA4AD"/>
<path d="M77.8331 236.426L78.4373 244.131L95.6865 243.368L94.8176 236.426H77.8331Z" fill="white"/>
<path opacity="0.5" d="M118.894 105.182L119.498 157.33L134.154 156.92C134.154 156.92 133.546 147.945 134.838 138.507C135.923 130.555 138.454 125.139 138.454 125.139L131.023 125.355C131.023 125.355 130.022 116.049 130.013 114.616C129.995 113.187 118.894 105.182 118.894 105.182Z" fill="#E392AD"/>
<path opacity="0.5" d="M176.119 96.519V156.338H172.525C172.525 156.338 175.334 132.512 173.363 125.138H170.328C170.328 125.138 171.087 110.602 170.328 106.782H174.324V99.7431L176.119 96.519Z" fill="#E392AD"/>
<path opacity="0.5" d="M198.158 119.228C198.374 117.252 205.929 114.769 206.348 115.162C206.767 115.554 204.756 147.786 203.693 151.852C202.63 155.919 191.789 155.892 191.789 155.892C191.789 155.892 196.487 134.361 198.158 119.228Z" fill="#E392AD"/>
<path opacity="0.5" d="M142.543 198.466L145.577 200.31C145.577 200.31 148.259 205.095 150.53 209.775C152.806 214.454 152.956 218.168 152.956 218.168L143.451 218.269L142.543 198.466Z" fill="#E392AD"/>
<path opacity="0.5" d="M115.736 198.466H140.995C140.995 198.466 139.914 181.543 139.46 179.634C139.006 177.724 128.288 172.436 128.288 172.436C128.288 172.436 115.573 167.09 114.814 167.717C114.056 168.338 115.736 198.466 115.736 198.466Z" fill="#E392AD"/>
<path opacity="0.5" d="M80.5631 199.551L83.0065 199.719C83.0065 199.719 84.3076 203.675 85.9218 209.316C87.5404 214.957 86.9318 217.29 86.9318 217.29L82.2832 217.061L80.5631 199.551Z" fill="#E392AD"/>
<path d="M127.843 56.248L112.173 49.2134L114.197 104.692L126.82 110.642L127.843 56.248Z" fill="#EB7F29"/>
<path d="M76.1968 108.873L71.3101 57.8843L112.173 49.2134L114.197 104.692L76.1968 108.873Z" fill="#F5CE45"/>
<path d="M88.5857 54.2193L92.7447 95.4214L99.7352 94.557L97.852 52.1729L88.5857 54.2193Z" fill="white"/>
<path opacity="0.5" d="M113.588 50.7749C112.23 50.7749 114.294 89.7674 115.811 95.6509C117.328 101.534 124.628 104.481 125.527 105.182C126.427 105.883 128.324 59.6354 127.225 57.1788C126.127 54.7178 113.588 50.7749 113.588 50.7749Z" fill="#E392AD"/>
<path opacity="0.5" d="M203.212 186.968L199.891 189.235C199.891 189.235 193.54 204.424 193.496 216.981L200.884 216.72L203.212 186.968Z" fill="#E392AD"/>
<path opacity="0.5" d="M199.772 230.274C199.799 229.555 195.763 231.191 195.763 231.191L194.753 260.913L198.154 264.283L199.772 230.274Z" fill="#E392AD"/>
<path opacity="0.5" d="M161.957 229.485C161.957 229.485 157.357 243.519 154.098 247.184C150.839 250.849 147.804 231.002 147.804 231.002L147.756 259.546H161.962L163.214 265.655L163.276 226.062L161.957 229.485Z" fill="#E392AD"/>
<path opacity="0.5" d="M138.247 234.292C138.247 234.292 139.592 238.336 140.523 241.582C142.163 247.307 144.06 261.557 144.06 261.557H138.247L138.573 260.009L136.024 264.605V233.767L138.247 234.292Z" fill="#E392AD"/>
<path d="M152.96 218.163C152.96 218.163 151.827 179.321 152.202 177.72C152.576 176.119 198.158 177.217 199.371 177.72C200.584 178.222 200.13 185.447 200.13 185.447L200.69 176.56L151.24 176.105L152.96 218.163Z" fill="#F8DD7E"/>
<path d="M83.2403 198.466C83.2403 198.466 80.9733 170.883 81.9789 169.56C82.9845 168.237 112.018 167.571 113.019 167.664C114.025 167.761 115.053 184.693 115.053 184.693L113.941 166.222L80.744 168.383L83.2403 198.466Z" fill="#F8DD7E"/>
<path d="M163.223 257.526C163.223 257.526 163.73 227.831 164.335 227.099C164.943 226.367 193.545 224.81 194.753 225.229C195.962 225.643 195.044 251.506 195.044 251.506L196.032 223.707L163.272 226.071L163.223 257.526Z" fill="#F8DD7E"/>
<path d="M108.984 258.007L107.714 233.714L136.029 232.797V254.761C136.029 254.761 135.521 234.261 135.318 233.772C135.116 233.282 110.386 234.477 109.279 234.583C108.163 234.693 108.984 258.007 108.984 258.007Z" fill="#F8DD7E"/>
<path d="M76.8584 250.187L75.0016 222.582H108.697L109.103 231.006C109.103 231.006 108.318 223.574 108.115 223.358C107.912 223.142 76.4791 222.825 75.7955 223.561C75.1163 224.298 76.8584 250.187 76.8584 250.187Z" fill="#F8DD7E"/>
<path d="M199.411 240.282L199.975 229.489H216.558L216.126 239.038C216.126 239.038 216.303 230.68 215.998 230.411C215.694 230.142 201.095 229.666 200.425 230.093C199.764 230.521 199.411 240.282 199.411 240.282Z" fill="#F8DD7E"/>
<path d="M202.282 198.88L203.213 186.968H221.401L219.902 201.302C219.902 201.302 220.757 188.895 220.568 187.929C220.378 186.968 205.854 187.074 204.681 187.726C203.504 188.375 202.282 198.88 202.282 198.88Z" fill="#F8DD7E"/>
<path d="M68.3418 141.007L65.8985 108.921L118.881 104.286V128.085C118.881 128.085 118.599 107.541 117.99 106.483C117.381 105.428 66.807 109.468 66.6571 109.958C66.5071 110.443 68.3418 141.007 68.3418 141.007Z" fill="#F8DD7E"/>
<path d="M138.45 125.138H172.525C172.525 125.138 152.907 126.823 138.45 125.138Z" fill="#F8DD7E"/>
<path d="M176.119 132.632V96.5196L198.158 95.4214L197.206 124.027C197.206 124.027 197.55 97.9971 196.945 96.9386C196.337 95.8801 178.638 96.7754 177.381 98.4028C176.119 100.03 176.119 132.632 176.119 132.632Z" fill="#F8DD7E"/>
<path d="M205.427 142.648L206.851 113.843H225.154L222.733 140.328C222.733 140.328 224.652 115.162 224.449 114.783C224.246 114.403 208.677 114.483 208.02 115.122C207.358 115.757 205.427 142.648 205.427 142.648Z" fill="#F8DD7E"/>
<path opacity="0.8" d="M46.8896 148.523C46.8896 148.523 58.7712 267.767 61.197 269.933C63.6227 272.098 222.01 271.895 224.241 270.704C226.473 269.509 237.384 106.209 237.384 106.209L226.063 272.098H58.4184L46.8896 148.523Z" fill="#ACA4AD"/>
<path opacity="0.3" d="M68.4256 112.15C66.8643 115.189 73.0213 128.834 83.8004 136.72C94.5794 144.606 116.371 128.27 116.848 113.839C117.328 99.4126 68.4256 112.15 68.4256 112.15Z" fill="white"/>
<path opacity="0.3" d="M153.534 177.322C151.315 177.988 153.428 199.666 158.583 207.097C163.739 214.529 189.333 210.418 193.496 202.885C197.664 195.352 200.721 178.906 199.367 177.719C198.017 176.537 153.534 177.322 153.534 177.322Z" fill="white"/>
<path opacity="0.5" d="M127.706 63.5952L138.45 66.9515L140.17 88.6773L127.225 88.9551L127.706 63.5952Z" fill="#ACA4AD"/>
<path d="M59.2387 44.1193L56.7998 16.8893L97.2874 6L98.2974 35.6733L59.2387 44.1193Z" fill="#F5CE45"/>
<path d="M97.2874 6L108.635 13.7226V40.269L98.2974 35.6733L97.2874 6Z" fill="#EB7F29"/>
<path d="M59.2387 44.1193L70.5912 47.5418L108.635 40.269L98.2974 35.6733L59.2387 44.1193Z" fill="#EB7F29"/>
<path opacity="0.8" d="M61.6998 44.11C59.9841 43.3779 95.9599 36.1139 98.293 36.4138C100.644 36.7181 106.576 40.0877 106.576 40.0877C106.576 40.0877 73.8681 46.818 70.5868 46.9238C67.3363 47.0253 61.6998 44.11 61.6998 44.11Z" fill="#E392AD"/>
<path opacity="0.5" d="M97.2874 6C97.2874 6 97.2345 32.5154 96.0481 34.6589C94.8661 36.798 62.6568 42.5712 61.0823 42.9637C59.5122 43.3563 58.3875 34.5972 58.3875 34.5972L59.2432 44.1237L98.2974 35.6777L97.2874 6Z" fill="#E392AD"/>
<path d="M57.823 28.2992L88.7753 20.0737V28.9475L58.3875 34.5972L57.823 28.2992Z" fill="white"/>
<path d="M57.6289 26.1556C57.6289 26.1556 57.3026 17.9875 57.6289 17.2819C57.9553 16.5806 94.8573 8.40809 95.5365 8.33311C96.2201 8.25814 97.186 15.7691 97.186 15.7691L97.2874 6L56.7998 16.8893L57.6289 26.1556Z" fill="#F8DD7E"/>
<path opacity="0.3" d="M98.8267 8.20459C97.7638 8.2531 98.3724 20.0333 99.131 24.4835C99.8896 28.9336 106.915 24.4834 107.775 21.5505C108.635 18.6176 108.133 14.5909 107.065 13.2589C106.002 11.9314 98.8267 8.20459 98.8267 8.20459Z" fill="#E392AD"/>
<path opacity="0.6" d="M97.508 266.669L97.6138 271.286L93.7062 271.238L93.468 263.083H106.122C106.179 263.493 106.21 263.722 106.21 263.722L97.508 266.669Z" fill="#ACA4AD"/>
<path opacity="0.5" d="M106.122 263.079H93.468L93.0579 249.375C93.0579 249.375 101.349 249.759 102.968 250.319C104.371 250.809 105.769 260.481 106.122 263.079Z" fill="#E392AD"/>
<path d="M41.4691 246.835L80.3999 247.378L81.379 279.076L44.5212 278.657L41.4691 246.835Z" fill="#F5CE45"/>
<path d="M81.3791 279.075L93.7635 272.87L92.8197 241.45L80.4 247.378L81.3791 279.075Z" fill="#EB7F29"/>
<path d="M41.4691 246.835L58.1449 241.896L92.8197 241.45L80.3999 247.378L41.4691 246.835Z" fill="#FAE7A4"/>
<path opacity="0.5" d="M82.3229 278.604C80.616 278.224 81.1938 250.456 82.12 248.278C83.0374 246.121 92.2595 242.138 92.8197 242.738C93.3798 243.338 92.6918 272.151 92.7623 272.747C92.8285 273.338 82.3229 278.604 82.3229 278.604Z" fill="#E392AD"/>
<path d="M42.8276 261.001H66.3748L68.1346 271.181H44.036L42.8276 261.001Z" fill="white"/>
<path opacity="0.5" d="M44.0801 274.056C44.0801 274.056 45.0681 277.624 45.5841 277.898C46.1045 278.167 77.3259 279.146 78.7593 278.603C80.1883 278.061 81.1189 270.55 81.1189 270.55L81.3835 279.075L44.5256 278.656L44.0801 274.056Z" fill="#E392AD"/>
<path d="M55.6663 242.627L58.1449 241.895L75.6719 241.67C75.6719 241.67 59.9973 240.665 58.2287 240.515C56.4602 240.365 55.4149 239.919 55.4149 239.919L55.6663 242.627Z" fill="white"/>
<path opacity="0.5" d="M76.1174 108.026C76.1174 108.026 89.3972 105.715 97.852 104.282C106.307 102.848 114.197 104.692 114.197 104.692L76.1174 108.026Z" fill="#E392AD"/>
<path opacity="0.5" d="M69.5856 157.33C69.5856 157.33 96.8023 152.258 119.498 157.33H69.5856Z" fill="#E392AD"/>
<path opacity="0.5" d="M109.584 218.022C109.584 218.022 94.1736 215.896 90.9408 215.997C87.7036 216.099 84.8721 217.06 84.8721 217.06L109.584 218.022Z" fill="#E392AD"/>
<path opacity="0.5" d="M152.96 218.163C152.96 218.163 189.298 215.473 198.158 216.849L152.96 218.163Z" fill="#E392AD"/>
<path opacity="0.5" d="M176.119 156.338C176.119 156.338 185.862 154.675 189.88 154.724C193.898 154.768 196.147 155.765 196.147 155.765L176.119 156.338Z" fill="#E392AD"/>
<path d="M109.244 212.558C109.244 212.558 108.918 199.988 109.584 199.551C110.25 199.11 139.989 199.079 140.995 199.551C142 200.023 142.543 208.491 142.543 208.491V198.466H108.366L109.244 212.558Z" fill="#F8DD7E"/>
<path d="M65.0958 209.104L63.9799 199.551H80.5631C80.5631 199.551 66.6482 199.767 65.5456 200.376C64.4474 200.98 65.0958 209.104 65.0958 209.104Z" fill="#F8DD7E"/>
<path d="M60.5927 215.579L61.7791 221.242L220.466 221.202L221.401 215.618C221.401 215.618 131.574 221.674 60.5927 215.579Z" fill="#CFE5F3"/>
<path d="M55.5869 156.386L56.7998 161.921L225.154 159.249V154.724C225.154 154.724 120.275 159.218 55.5869 156.386Z" fill="#CFE5F3"/>
<path d="M55.5869 156.386C55.5869 156.386 177.09 157.771 225.154 154.724C225.154 154.724 110.426 160.276 55.5869 156.386Z" fill="#E5F1F9"/>
<g opacity="0.5">
<path d="M176.119 207.097C174.355 208.407 175.572 210.034 177.592 208.111C179.617 206.189 177.067 206.391 176.119 207.097Z" fill="#F9A4AD"/>
<path d="M178.96 257.31C177.195 258.62 178.413 260.247 180.433 258.324C182.457 256.401 179.912 256.604 178.96 257.31Z" fill="#F9A4AD"/>
<path d="M170.324 183.065C169.027 183.537 170.311 185.848 171.828 186.968C173.345 188.088 172.459 182.284 170.324 183.065Z" fill="#F9A4AD"/>
<path d="M169.46 169.164C168.163 169.635 169.446 171.946 170.963 173.067C172.481 174.191 171.594 168.387 169.46 169.164Z" fill="#F9A4AD"/>
<path d="M218.38 190.726C216.757 191.18 216.422 193.976 217.127 194.977C217.837 195.974 219.218 190.488 218.38 190.726Z" fill="#F9A4AD"/>
<path d="M94.328 201.501C93.7811 201.889 94.1251 202.092 94.8352 202.343C95.5409 202.599 94.5618 201.333 94.328 201.501Z" fill="#F9A4AD"/>
<path d="M121.113 202.885C120.314 203.622 120.716 204.874 121.576 204.27C122.436 203.661 121.461 202.563 121.113 202.885Z" fill="#F9A4AD"/>
<path d="M91.0908 141.907C90.2925 142.643 90.6938 143.896 91.5539 143.292C92.4139 142.679 91.4392 141.585 91.0908 141.907Z" fill="#F9A4AD"/>
<path d="M175.37 253.041C174.571 253.777 174.973 255.03 175.833 254.425C176.693 253.817 175.718 252.723 175.37 253.041Z" fill="#F9A4AD"/>
<path d="M132.902 202.828C130.427 203.67 129.466 204.015 130.22 204.923C130.979 205.832 133.153 204.597 133.457 203.873C133.762 203.154 133.859 202.502 132.902 202.828Z" fill="#F9A4AD"/>
<path d="M100.847 134.665C98.5577 134.696 99.7838 141.753 100.847 142.652C101.91 143.552 107.52 134.577 100.847 134.665Z" fill="#F9A4AD"/>
<path d="M164.096 143.451C163.126 142.004 162.429 146.353 164.096 146.617C165.764 146.886 166.068 146.384 164.096 143.451Z" fill="#F9A4AD"/>
<path d="M86.3893 14.8823C85.4807 15.8923 85.8821 17.1052 87.6021 16.501C89.3222 15.8923 87.2978 13.8679 86.3893 14.8823Z" fill="#F9A4AD"/>
<path d="M62.3216 39.8851C61.7174 39.0736 62.1717 38.4914 63.6359 37.7328C65.1002 36.9742 65.356 38.6413 65.1531 39.5014C64.9502 40.3614 62.6877 40.3746 62.3216 39.8851Z" fill="#F9A4AD"/>
<path d="M73.8505 256.23C72.5582 257.345 73.0919 257.654 74.684 258.007C76.2762 258.364 74.5297 255.643 73.8505 256.23Z" fill="#F9A4AD"/>
<path d="M80.7396 229.11C80.0118 230.385 80.7484 232.577 81.8863 230.685C83.0286 228.788 81.6393 227.536 80.7396 229.11Z" fill="#F9A4AD"/>
<path d="M109.87 255.744C109.495 255.93 109.703 256.97 110.338 256.697C110.973 256.428 110.404 255.48 109.87 255.744Z" fill="#F9A4AD"/>
<path d="M210.507 252.983C209.603 253.543 208.386 257.037 210.507 257.089C212.629 257.142 212.324 251.854 210.507 252.983Z" fill="#F9A4AD"/>
<path d="M208.342 254.32C209.18 253.927 208.906 252.904 207.985 253.358C207.067 253.812 207.693 254.62 208.342 254.32Z" fill="#F9A4AD"/>
<path d="M48.1597 254.813C48.9977 254.421 48.7243 253.398 47.8025 253.852C46.8851 254.306 47.5114 255.118 48.1597 254.813Z" fill="#F9A4AD"/>
<path d="M152.819 231.509C153.657 231.117 153.384 230.093 152.462 230.548C151.544 231.002 152.171 231.813 152.819 231.509Z" fill="#F9A4AD"/>
<path d="M141.819 178.143C142.657 177.75 142.384 176.727 141.462 177.181C140.545 177.636 141.171 178.447 141.819 178.143Z" fill="#F9A4AD"/>
</g>
<path d="M262.861 73.8903L271.938 83.8439L319.864 54.1213L262.861 73.8903Z" fill="#95AAC9"/>
<path d="M253.003 58.9485L226.761 98.9106L319.864 54.1212L251.683 38.0919L252.955 53.5193L255.622 58.7596L253.003 58.9485Z" fill="url(#paint0_linear_53104_29176)"/>
<path opacity="0.5" d="M252.955 53.5195L319.864 54.1214L255.622 58.7599L252.955 53.5195Z" fill="#ACC2E4"/>
<path d="M226.761 98.9113C226.761 98.9113 276.322 79.7975 319.864 54.1218L226.761 98.9113Z" fill="#ACC2E4"/>
<path d="M254.237 53.5312C254.237 53.5312 269.361 56.8118 272.1 57.5718C274.836 58.33 319.864 54.1214 319.864 54.1214L254.237 53.5312Z" fill="#95AAC9"/>
<path d="M239.375 92.8427C239.375 92.8427 249.156 64.0958 259.722 60.6043C270.289 57.1128 318.926 54.9777 318.926 54.9777L239.375 92.8427Z" fill="#EBF0F8"/>
<path opacity="0.5" d="M268.914 80.5277C268.914 80.5277 285.798 75.2487 291.712 71.581C297.626 67.9133 310.623 59.4279 310.623 59.4279L268.914 80.5277Z" fill="#A498B7"/>
<path d="M35.5874 120.851L35.9158 121.312C36.5811 120.859 37.2359 120.395 37.9117 119.954L39.9649 118.687L39.6887 118.216L37.6082 119.49C36.9281 119.929 36.263 120.396 35.5874 120.851Z" fill="#4B5C69"/>
<path d="M29.9808 125.46L30.3917 125.888C31.5534 124.775 32.7675 123.722 34.0298 122.725L33.675 122.275C32.3932 123.281 31.1586 124.34 29.9808 125.46Z" fill="#4B5C69"/>
<path d="M25.1193 130.856L25.6116 131.233L26.3569 130.287C26.6054 129.972 26.8495 129.654 27.1214 129.358L27.9136 128.45C28.176 128.146 28.4426 127.844 28.7259 127.563L28.2895 127.15C28.0003 127.436 27.7302 127.738 27.462 128.048L26.6536 128.964C26.3792 129.264 26.1291 129.587 25.8739 129.904L25.1193 130.856Z" fill="#4B5C69"/>
<path d="M21.1629 136.954L21.7312 137.259C22.1214 136.558 22.5204 135.862 22.9227 135.166C23.3605 134.492 23.7768 133.806 24.2285 133.144L23.7091 132.789C23.2489 133.461 22.8199 134.154 22.3771 134.836C21.9698 135.542 21.5581 136.245 21.1629 136.954Z" fill="#4B5C69"/>
<path d="M18.2463 143.615L18.8835 143.836C19.3903 142.314 20.01 140.83 20.6797 139.37L20.0853 139.091C19.4021 140.569 18.7699 142.074 18.2463 143.615Z" fill="#4B5C69"/>
<path d="M16.4318 150.661L17.1222 150.78C17.2658 149.991 17.3939 149.2 17.5908 148.419L17.8616 147.245L18.1842 146.087L17.527 145.9L17.1944 147.076L16.917 148.266C16.7142 149.052 16.5829 149.86 16.4318 150.661Z" fill="#4B5C69"/>
<path d="M15.7666 157.901L16.4963 157.907C16.4939 157.106 16.5499 156.304 16.5724 155.501C16.6472 154.702 16.6929 153.903 16.7901 153.105L16.0841 153.023C15.9828 153.833 15.9296 154.645 15.8541 155.455C15.825 156.275 15.7684 157.088 15.7666 157.901Z" fill="#4B5C69"/>
<path d="M16.2746 165.162L17.0227 165.046L16.8467 163.857C16.7954 163.461 16.7647 163.059 16.7203 162.661C16.6861 162.261 16.6271 161.863 16.6118 161.465L16.5462 160.264L15.8087 160.297L15.8721 161.517C15.8901 161.925 15.9431 162.328 15.9791 162.735C16.022 163.141 16.0536 163.546 16.1042 163.953L16.2746 165.162Z" fill="#4B5C69"/>
<path d="M17.9463 172.248L18.6897 172.005C18.4318 171.247 18.2242 170.472 17.996 169.703C17.8123 168.922 17.5944 168.149 17.4424 167.363L16.6941 167.52C16.8464 168.321 17.0645 169.107 17.2485 169.903C17.4802 170.686 17.6881 171.476 17.9463 172.248Z" fill="#4B5C69"/>
<path d="M20.7868 178.958L21.5005 178.576L20.9476 177.51C20.7582 177.158 20.6071 176.785 20.4373 176.424C20.2734 176.059 20.0968 175.7 19.9431 175.331L19.494 174.215L18.7557 174.504L19.2069 175.642C19.3623 176.017 19.5417 176.386 19.7074 176.759C19.88 177.13 20.0364 177.509 20.2241 177.868L20.7868 178.958Z" fill="#4B5C69"/>
<path d="M24.7617 185.067L25.4199 184.547L25.0426 184.081L24.6898 183.597L23.9834 182.627C23.5317 181.965 23.0927 181.296 22.6698 180.619L21.9714 181.044C22.4023 181.737 22.8459 182.423 23.3056 183.101L24.0252 184.093L24.3851 184.59L24.7617 185.067Z" fill="#4B5C69"/>
<path d="M29.7984 190.347L30.3617 189.691L29.467 188.892L29.0197 188.492L28.5951 188.068L27.7434 187.224C27.4626 186.941 27.2045 186.633 26.9322 186.34L26.3004 186.905C26.5756 187.208 26.8423 187.521 27.1249 187.811L27.9908 188.68L28.4249 189.112L28.8794 189.525L29.7984 190.347Z" fill="#4B5C69"/>
<path d="M35.7736 194.541L36.2131 193.765C34.8115 192.999 33.4874 192.098 32.1935 191.161L31.6669 191.858C32.987 192.825 34.3399 193.751 35.7736 194.541Z" fill="#4B5C69"/>
<path d="M42.4464 197.502L42.7352 196.627C41.9823 196.357 41.2155 196.131 40.4849 195.807L39.3748 195.351C39.0054 195.201 38.6507 195.01 38.2913 194.843L37.9012 195.654C38.2736 195.829 38.6326 196.021 39.0116 196.18L40.1442 196.652C40.8922 196.985 41.6762 197.222 42.4464 197.502Z" fill="#4B5C69"/>
<path d="M49.5601 199.159L49.6892 198.221C48.901 198.092 48.1102 197.967 47.3226 197.827C46.5464 197.647 45.7595 197.496 44.9871 197.289L44.7518 198.187C45.5407 198.4 46.344 198.557 47.1409 198.746C47.9458 198.897 48.7521 199.024 49.5601 199.159Z" fill="#4B5C69"/>
<path d="M56.8432 199.564L56.8199 198.589L54.4172 198.593L52.0208 198.47L51.9434 199.424L54.3939 199.558L56.8432 199.564Z" fill="#4B5C69"/>
<path d="M64.0987 198.856L63.933 197.868C63.1411 197.986 62.3523 198.127 61.5541 198.221C60.7565 198.303 59.9608 198.391 59.1639 198.462L59.2361 199.442C60.0475 199.371 60.8613 199.281 61.6743 199.202C62.4855 199.116 63.2923 198.973 64.0987 198.856Z" fill="#4B5C69"/>
<path d="M71.1977 197.236L70.9111 196.248C70.5272 196.358 70.1445 196.487 69.7578 196.586L68.5926 196.88L67.4275 197.174C67.0383 197.279 66.645 197.34 66.2513 197.427L66.4574 198.415C66.8554 198.33 67.2589 198.266 67.6558 198.163L68.8424 197.867L70.029 197.571C70.4165 197.475 70.8027 197.346 71.1977 197.236Z" fill="#4B5C69"/>
<path d="M78.0723 194.86L77.6778 193.879C76.9292 194.171 76.1886 194.479 75.4329 194.759L73.1574 195.551L73.48 196.537L75.7915 195.742C76.5583 195.463 77.3126 195.151 78.0723 194.86Z" fill="#4B5C69"/>
<path d="M84.699 191.873L84.2129 190.905L82.0457 191.965C81.3265 192.326 80.5798 192.625 79.8499 192.96L80.2761 193.936C81.0171 193.602 81.7741 193.3 82.5035 192.937L84.699 191.873Z" fill="#4B5C69"/>
<path d="M91.067 188.385L90.4972 187.432C89.1066 188.237 87.7276 189.071 86.2973 189.809L86.8116 190.772C88.2624 190.029 89.6559 189.194 91.067 188.385Z" fill="#4B5C69"/>
<path d="M97.1869 184.476L96.5411 183.541L94.5443 184.895C93.879 185.348 93.1872 185.756 92.5096 186.19L93.1042 187.14C93.7886 186.704 94.4906 186.293 95.1662 185.837L97.1869 184.476Z" fill="#4B5C69"/>
<path d="M103.035 180.169L102.312 179.258L100.413 180.747C99.7709 181.23 99.117 181.698 98.4693 182.175L99.139 183.105C99.797 182.625 100.462 182.157 101.11 181.669L103.035 180.169Z" fill="#4B5C69"/>
<path d="M108.573 175.466L107.767 174.588L105.975 176.202C105.375 176.736 104.749 177.24 104.136 177.763L104.887 178.667C105.507 178.142 106.142 177.632 106.752 177.095L108.573 175.466Z" fill="#4B5C69"/>
<path d="M113.763 170.38L112.876 169.542C111.754 170.695 110.652 171.865 109.48 172.965L110.312 173.832C111.504 172.723 112.625 171.541 113.763 170.38Z" fill="#4B5C69"/>
<path d="M118.57 164.932L117.604 164.141C117.108 164.775 116.569 165.369 116.054 165.986L115.272 166.906C115.01 167.21 114.734 167.504 114.466 167.802L115.378 168.626C115.653 168.326 115.931 168.028 116.197 167.723L116.992 166.796C117.516 166.173 118.067 165.568 118.57 164.932Z" fill="#4B5C69"/>
<path d="M122.997 159.169L121.96 158.426C121.041 159.748 120.057 161.018 119.082 162.296L120.072 163.07C121.059 161.781 122.062 160.499 122.997 159.169Z" fill="#4B5C69"/>
<path d="M127.055 153.15L125.955 152.457L124.656 154.492L123.312 156.495L124.369 157.217L125.738 155.2L127.055 153.15Z" fill="#4B5C69"/>
<path d="M130.778 146.917L129.619 146.265C129.235 146.975 128.819 147.665 128.421 148.364L127.817 149.411L127.189 150.443L128.312 151.123L128.947 150.082L129.562 149.028C129.965 148.324 130.387 147.629 130.778 146.917Z" fill="#4B5C69"/>
<path d="M134.206 140.528L132.998 139.912C132.272 141.35 131.515 142.772 130.758 144.196L131.936 144.836C132.705 143.404 133.474 141.976 134.206 140.528Z" fill="#4B5C69"/>
<path d="M137.421 134.04L136.172 133.446C135.475 134.902 134.782 136.357 134.061 137.802L135.282 138.411C136.015 136.956 136.718 135.498 137.421 134.04Z" fill="#4B5C69"/>
<path d="M140.491 127.488L139.21 126.899L137.181 131.299L138.444 131.889L140.491 127.488Z" fill="#4B5C69"/>
<path d="M143.511 120.924L142.205 120.323L140.194 124.739L141.486 125.33L143.511 120.924Z" fill="#4B5C69"/>
<path d="M146.576 114.395L145.254 113.761C144.556 115.225 143.873 116.692 143.192 118.163L144.503 118.77C145.191 117.309 145.879 115.848 146.576 114.395Z" fill="#4B5C69"/>
<path d="M149.798 107.959L148.475 107.268C148.097 107.987 147.727 108.708 147.37 109.437C147.005 110.164 146.642 110.887 146.289 111.618L147.612 112.266C147.962 111.539 148.327 110.823 148.69 110.104C149.054 109.388 149.422 108.671 149.798 107.959Z" fill="#4B5C69"/>
<path d="M153.285 101.68L151.977 100.908C151.158 102.316 150.356 103.731 149.59 105.162L150.912 105.876C151.674 104.461 152.471 103.066 153.285 101.68Z" fill="#4B5C69"/>
<path d="M157.153 95.6462L155.881 94.7649C155.426 95.4429 154.962 96.1125 154.519 96.7946L153.21 98.8577L154.508 99.6623L155.805 97.6354C156.244 96.9653 156.702 96.3121 157.153 95.6462Z" fill="#4B5C69"/>
<path d="M161.497 89.971L160.293 88.9582C159.769 89.5851 159.241 90.2095 158.751 90.8641C158.255 91.5128 157.741 92.1481 157.272 92.8152L158.526 93.7379C158.987 93.0838 159.494 92.4649 159.983 91.8292C160.463 91.1919 160.981 90.5848 161.497 89.971Z" fill="#4B5C69"/>
<path d="M166.374 84.768L165.263 83.6132C164.657 84.1634 164.105 84.7685 163.53 85.3508C162.949 85.9272 162.407 86.5406 161.86 87.1482L163.037 88.2085C163.573 87.6149 164.105 87.0187 164.672 86.4605C165.24 85.8912 165.781 85.3001 166.374 84.768Z" fill="#4B5C69"/>
<path d="M171.794 80.1472L170.81 78.8488L168.883 80.371L167.023 81.9745L168.091 83.1772L169.91 81.6216L171.794 80.1472Z" fill="#4B5C69"/>
<path d="M177.725 76.2025L176.882 74.7748L175.823 75.3987L174.791 76.0667C174.108 76.5205 173.409 76.9421 172.751 77.4366L173.689 78.7804C174.329 78.3016 175.014 77.8949 175.679 77.4568L176.684 76.8107L177.725 76.2025Z" fill="#4B5C69"/>
<path d="M184.056 72.9287L183.363 71.3948L181.145 72.4428C180.417 72.8134 179.695 73.2044 178.97 73.5852L179.765 75.048C180.471 74.6795 181.175 74.3042 181.887 73.9416L184.056 72.9287Z" fill="#4B5C69"/>
<path d="M190.699 70.3182L190.148 68.6987C189.374 68.9646 188.612 69.2603 187.845 69.539C187.462 69.6817 187.078 69.8176 186.698 69.9706L185.567 70.4457L186.213 72.0104L187.32 71.5529C187.69 71.406 188.069 71.2754 188.444 71.1345C189.198 70.8629 189.944 70.5752 190.699 70.3182Z" fill="#4B5C69"/>
<path d="M197.564 68.3169L197.141 66.6301C196.345 66.8107 195.566 67.0595 194.778 67.2708C193.993 67.4957 193.201 67.6968 192.428 67.9627L192.937 69.6043C193.695 69.3464 194.473 69.1524 195.242 68.9354C196.018 68.7312 196.781 68.4938 197.564 68.3169Z" fill="#4B5C69"/>
<path d="M204.569 66.8359L204.26 65.0966C203.456 65.2387 202.661 65.4115 201.861 65.5673C201.064 65.7333 200.26 65.872 199.47 66.0764L199.853 67.781C200.631 67.5836 201.422 67.4486 202.206 67.2897C202.993 67.141 203.778 66.9709 204.569 66.8359Z" fill="#4B5C69"/>
<path d="M211.664 65.8165L211.453 64.0327L209.036 64.3511L207.824 64.5112L206.618 64.7098L206.894 66.4617L208.08 66.272L209.275 66.1164L211.664 65.8165Z" fill="#4B5C69"/>
<path d="M218.812 65.1852L218.69 63.3665L216.256 63.5394L213.829 63.78L214.009 65.572L216.407 65.3431L218.812 65.1852Z" fill="#4B5C69"/>
<path d="M225.988 64.864L225.944 63.0174C224.321 63.0644 222.696 63.1449 221.071 63.2108L221.165 65.0368C222.777 64.978 224.382 64.903 225.988 64.864Z" fill="#4B5C69"/>
<path d="M233.177 64.8478L233.198 62.9727L230.763 62.952C229.95 62.9502 229.14 62.9733 228.327 62.9827L228.349 64.8391C229.152 64.8324 229.956 64.8146 230.762 64.8182L233.177 64.8478Z" fill="#4B5C69"/>
<path d="M243.29 63.9636C238.811 65.4636 233.233 68.0889 229.737 70.95L232.656 63.6264L230.213 56.1333C233.517 59.2066 238.92 62.1821 243.29 63.9636Z" fill="#4B5C69"/>
</g>
<defs>
<filter id="filter0_d_53104_29176" x="2.49036" y="0" width="329.374" height="301.289" filterUnits="userSpaceOnUse" color-interpolation-filters="sRGB">
<feFlood flood-opacity="0" result="BackgroundImageFix"/>
<feColorMatrix in="SourceAlpha" type="matrix" values="0 0 0 0 0 0 0 0 0 0 0 0 0 0 0 0 0 0 127 0" result="hardAlpha"/>
<feOffset dx="2" dy="4"/>
<feGaussianBlur stdDeviation="5"/>
<feComposite in2="hardAlpha" operator="out"/>
<feColorMatrix type="matrix" values="0 0 0 0 0 0 0 0 0 0 0 0 0 0 0 0 0 0 0.25 0"/>
<feBlend mode="normal" in2="BackgroundImageFix" result="effect1_dropShadow_53104_29176"/>
<feBlend mode="normal" in="SourceGraphic" in2="effect1_dropShadow_53104_29176" result="shape"/>
</filter>
<linearGradient id="paint0_linear_53104_29176" x1="283.298" y1="87.4651" x2="244.362" y2="44.7683" gradientUnits="userSpaceOnUse">
<stop offset="0.016" stop-color="#CDDEF3"/>
<stop offset="1" stop-color="#E7F2F9"/>
</linearGradient>
</defs>
</svg>
