<svg width="38" height="16" viewBox="0 0 38 16" fill="none" xmlns="http://www.w3.org/2000/svg">
<path d="M2.6567 6.16395C2.6567 5.75442 2.99272 5.59691 3.54926 5.59691C4.34732 5.59691 5.3554 5.83843 6.15345 6.26896V3.80128C5.28189 3.45475 4.42083 3.31824 3.54926 3.31824C1.4176 3.31824 0 4.43133 0 6.28996C0 9.18818 3.99029 8.72614 3.99029 9.97574C3.99029 10.4588 3.57026 10.6163 2.98222 10.6163C2.11066 10.6163 0.997574 10.2593 0.115509 9.77622V12.2754C1.09208 12.6954 2.07915 12.8739 2.98222 12.8739C5.16638 12.8739 6.66799 11.7924 6.66799 9.91273C6.65749 6.7835 2.6567 7.34004 2.6567 6.16395ZM9.75522 1.21809L7.19303 1.76413L7.18253 10.1753C7.18253 11.7294 8.34812 12.8739 9.90223 12.8739C10.7633 12.8739 11.3933 12.7164 11.7399 12.5274V10.3958C11.4038 10.5323 9.74472 11.0153 9.74472 9.4612V5.73342H11.7399V3.49676H9.74472L9.75522 1.21809ZM15.0056 4.27382L14.8376 3.49676H12.5694V12.6849H15.1946V6.45798C15.8142 5.64942 16.8642 5.79643 17.1898 5.91194V3.49676C16.8537 3.37075 15.6252 3.13973 15.0056 4.27382ZM17.8303 3.49676H20.466V12.6849H17.8303V3.49676ZM17.8303 2.6987L20.466 2.13166V0L17.8303 0.556541V2.6987ZM25.9474 3.31824C24.9183 3.31824 24.2568 3.80128 23.8893 4.13731L23.7528 3.48626H21.4426V15.7302L24.0678 15.1736L24.0783 12.2019C24.4563 12.4749 25.0128 12.8634 25.9369 12.8634C27.8166 12.8634 29.5282 11.3513 29.5282 8.02259C29.5177 4.97737 27.785 3.31824 25.9474 3.31824ZM25.3174 10.5533C24.6978 10.5533 24.3303 10.3328 24.0783 10.0597L24.0678 6.16395C24.3408 5.85943 24.7188 5.64942 25.3174 5.64942C26.2729 5.64942 26.9345 6.7205 26.9345 8.0961C26.9345 9.5032 26.2834 10.5533 25.3174 10.5533ZM37.8028 8.1276C37.8028 5.4394 36.5007 3.31824 34.012 3.31824C31.5128 3.31824 30.0007 5.4394 30.0007 8.1066C30.0007 11.2673 31.7858 12.8634 34.348 12.8634C35.5976 12.8634 36.5427 12.5799 37.2567 12.1809V10.0807C36.5427 10.4378 35.7236 10.6583 34.6841 10.6583C33.6655 10.6583 32.7624 10.3013 32.6469 9.06217H37.7818C37.7818 8.92566 37.8028 8.37962 37.8028 8.1276ZM32.6154 7.13003C32.6154 5.94344 33.34 5.4499 34.0015 5.4499C34.6421 5.4499 35.3246 5.94344 35.3246 7.13003H32.6154Z" fill="#6772E5"/>
</svg>
