<svg width="27" height="10" viewBox="0 0 27 10" fill="none" xmlns="http://www.w3.org/2000/svg">
<path d="M9.46973 9.05201L10.8257 1.0946H12.9947L11.6377 9.05201H9.46973Z" fill="#0E4595"/>
<path d="M19.475 1.26585C19.0453 1.10464 18.372 0.931641 17.5311 0.931641C15.3879 0.931641 13.8783 2.01089 13.8654 3.55767C13.8534 4.70106 14.9432 5.33891 15.7659 5.71954C16.6102 6.10964 16.894 6.35837 16.8899 6.7066C16.8845 7.24003 16.2157 7.48363 15.5923 7.48363C14.7242 7.48363 14.263 7.36303 13.5507 7.06601L13.2712 6.93952L12.9668 8.72084C13.4734 8.94302 14.4101 9.13541 15.3828 9.14541C17.6628 9.14541 19.1429 8.07848 19.1597 6.4267C19.1678 5.52146 18.59 4.83264 17.3386 4.26471C16.5805 3.8966 16.1163 3.65096 16.1212 3.27822C16.1212 2.94746 16.5142 2.59378 17.3633 2.59378C18.0725 2.58277 18.5864 2.73743 18.9867 2.89864L19.181 2.99047L19.475 1.26585Z" fill="#0E4595"/>
<path d="M25.0553 1.0946H23.3793C22.8601 1.0946 22.4716 1.2363 22.2436 1.75449L19.0225 9.04684H21.3C21.3 9.04684 21.6724 8.06637 21.7566 7.85106C22.0055 7.85106 24.218 7.85447 24.5343 7.85447C24.5992 8.13307 24.7982 9.04684 24.7982 9.04684H26.8108L25.0553 1.0946ZM22.3962 6.23285C22.5756 5.77438 23.2604 4.00842 23.2604 4.00842C23.2476 4.0296 23.4384 3.54772 23.5479 3.24896L23.6945 3.93501C23.6945 3.93501 24.1098 5.83446 24.1966 6.23273H22.3962V6.23285Z" fill="#0E4595"/>
<path d="M0.0277074 1.0946L0 1.26013C0.85739 1.46768 1.62316 1.76808 2.2936 2.14177L4.21812 9.03925L6.51291 9.03671L9.92751 1.0946H7.62986L5.50647 6.52097L5.28029 5.41815C5.26969 5.38408 5.25817 5.34995 5.24639 5.31574L4.50821 1.76641C4.37696 1.26254 3.99619 1.11216 3.52511 1.0946H0.0277074Z" fill="#0E4595"/>
</svg>
